HIERARCHY
ROOT Hips
{
	OFFSET 0.000000 0.000000 0.000000
	CHANNELS 6 Xposition Yposition Zposition Xrotation Yrotation Zrotation
	JOINT LeftUpLeg_virtual
	{
		OFFSET 0.000000 0.000000 0.000000
		CHANNELS 3 Xrotation Yrotation Zrotation
		JOINT LeftUpLeg
		{
			OFFSET 13.026900 -6.336304 -1.092800
			CHANNELS 3 Xrotation Yrotation Zrotation
			JOINT LeftLeg
			{
				OFFSET 0.524474 -46.096886 9.782700
				CHANNELS 3 Xrotation Yrotation Zrotation
				JOINT LeftFoot
				{
					OFFSET -0.524474 -53.427422 -12.948200
					CHANNELS 3 Xrotation Yrotation Zrotation
					JOINT LeftToeBase
					{
						OFFSET 0.192200 -14.009700 16.364100
						CHANNELS 3 Xrotation Yrotation Zrotation
						JOINT LeftToe_End
						{
							OFFSET -1.784700 -0.561700 9.474800
							CHANNELS 3 Xrotation Yrotation Zrotation
							End Site
							{
								OFFSET 0 0 0
							}
						}
					}
				}
			}
		}
	}
	JOINT RightUpLeg_virtual
	{
		OFFSET 0.000000 0.000000 0.000000
		CHANNELS 3 Xrotation Yrotation Zrotation
		JOINT RightUpLeg
		{
			OFFSET -12.883000 -6.336304 -1.092800
			CHANNELS 3 Xrotation Yrotation Zrotation
			JOINT RightLeg
			{
				OFFSET -0.524587 -46.096825 9.782800
				CHANNELS 3 Xrotation Yrotation Zrotation
				JOINT RightFoot
				{
					OFFSET 0.524587 -53.427383 -12.948300
					CHANNELS 3 Xrotation Yrotation Zrotation
					JOINT RightToeBase
					{
						OFFSET -0.192200 -14.009700 16.364100
						CHANNELS 3 Xrotation Yrotation Zrotation
						JOINT RightToe_End
						{
							OFFSET 1.784700 -0.561700 9.474800
							CHANNELS 3 Xrotation Yrotation Zrotation
							End Site
							{
								OFFSET 0 0 0
							}
						}
					}
				}
			}
		}
	}
	JOINT Spine_virtual
	{
		OFFSET 0.000000 0.000000 0.000000
		CHANNELS 3 Xrotation Yrotation Zrotation
		JOINT Spine
		{
			OFFSET 0.072000 7.257294 -0.789700
			CHANNELS 3 Xrotation Yrotation Zrotation
			JOINT Spine1
			{
				OFFSET 0.000000 12.508769 -0.658067
				CHANNELS 3 Xrotation Yrotation Zrotation
				JOINT Spine1_split
				{
					OFFSET 0.000000 12.508769 -0.658067
					CHANNELS 3 Xrotation Yrotation Zrotation
					JOINT Spine2
					{
						OFFSET 0.000000 12.508769 -0.658067
						CHANNELS 3 Xrotation Yrotation Zrotation
						JOINT Neck_virtual
						{
							OFFSET 0.000000 0.000000 0.000000
							CHANNELS 3 Xrotation Yrotation Zrotation
							JOINT Neck
							{
								OFFSET 0.000000 14.033295 7.520400
								CHANNELS 3 Xrotation Yrotation Zrotation
								JOINT Head
								{
									OFFSET 0.000000 8.198502 5.703100
									CHANNELS 3 Xrotation Yrotation Zrotation
									JOINT HeadTop_End
									{
										OFFSET 0.000000 17.760803 13.332701
										CHANNELS 3 Xrotation Yrotation Zrotation
										End Site
										{
											OFFSET 0 0 0
										}
									}
								}
							}
						}
						JOINT LeftShoulder_virtual
						{
							OFFSET 0.000000 0.000000 0.000000
							CHANNELS 3 Xrotation Yrotation Zrotation
							JOINT LeftShoulder
							{
								OFFSET 6.292450 5.785301 -0.669000
								CHANNELS 3 Xrotation Yrotation Zrotation
								JOINT LeftShoulder_split
								{
									OFFSET 6.292450 5.785301 -0.669000
									CHANNELS 3 Xrotation Yrotation Zrotation
									JOINT LeftArm
									{
										OFFSET 13.907140 -6.093903 1.965100
										CHANNELS 3 Xrotation Yrotation Zrotation
										JOINT LeftForeArm
										{
											OFFSET 34.140198 0.000000 0.000000
											CHANNELS 3 Xrotation Yrotation Zrotation
											JOINT LeftHand
											{
												OFFSET 40.960209 0.000000 0.000000
												CHANNELS 3 Xrotation Yrotation Zrotation
												End Site
												{
													OFFSET 0 0 0
												}
											}
										}
									}
								}
							}
						}
						JOINT RightShoulder_virtual
						{
							OFFSET 0.000000 0.000000 0.000000
							CHANNELS 3 Xrotation Yrotation Zrotation
							JOINT RightShoulder
							{
								OFFSET -6.292450 5.785301 -0.669000
								CHANNELS 3 Xrotation Yrotation Zrotation
								JOINT RightShoulder_split
								{
									OFFSET -6.292450 5.785301 -0.669000
									CHANNELS 3 Xrotation Yrotation Zrotation
									JOINT RightArm
									{
										OFFSET -13.907140 -6.093903 1.965100
										CHANNELS 3 Xrotation Yrotation Zrotation
										JOINT RightForeArm
										{
											OFFSET -34.140198 0.000000 0.000000
											CHANNELS 3 Xrotation Yrotation Zrotation
											JOINT RightHand
											{
												OFFSET -40.960209 0.000000 0.000000
												CHANNELS 3 Xrotation Yrotation Zrotation
												End Site
												{
													OFFSET 0 0 0
												}
											}
										}
									}
								}
							}
						}
					}
				}
			}
		}
	}
}
MOTION
Frames: 8
Frame Time: 0.03333333
0.950140 56.645248 -3.602856 0.000000 0.000000 0.000000 -179.518613 -4.038989 170.665267 -88.984866 -22.682198 13.806544 112.907945 4.790218 3.032134 -18.069180 4.110443 -17.569811 -1.266224 1.139164 1.465067 0.000000 0.000000 0.000000 -179.518613 -4.038989 170.665267 -62.604592 17.462466 -26.750489 103.052555 3.085142 -0.394540 -19.177727 -8.313166 31.819481 -9.248746 -3.083412 -0.190024 0.000000 0.000000 0.000000 -179.518613 -4.038989 170.665267 3.984101 4.238987 -1.905338 8.159351 6.853758 -4.619807 0.000000 0.000000 0.000000 0.000000 0.000000 0.000000 8.159351 6.853755 -4.619802 -3.848635 28.396747 6.926100 5.964059 35.652925 -22.323001 0.000000 0.000000 0.000000 8.159351 6.853755 -4.619802 0.999374 -15.480036 -11.858117 0.000000 0.000000 0.000000 2.922992 -1.021120 -32.113432 39.900008 -32.869975 -2.079702 0.000000 0.000000 0.000000 8.159351 6.853755 -4.619802 3.296029 -18.277602 12.218452 0.000000 0.000000 0.000000 12.766710 -13.255691 60.143381 30.211890 39.427018 -4.032019 0.000000 0.000000 0.000000 
0.943314 56.647926 -3.611446 0.000000 0.000000 0.000000 -179.576752 -4.070840 170.631718 -89.071445 -22.696010 13.772781 112.910342 4.775293 3.031691 -18.067286 4.096222 -17.542745 -1.264025 1.137801 1.462501 0.000000 0.000000 0.000000 -179.576752 -4.070840 170.631718 -62.603581 17.441528 -26.761369 103.040015 3.067874 -0.384085 -19.196310 -8.320524 31.819546 -9.247645 -3.096595 -0.190636 0.000000 0.000000 0.000000 -179.576752 -4.070840 170.631718 3.962217 4.241318 -1.902347 8.115210 6.854069 -4.611593 0.000000 0.000000 0.000000 0.000000 0.000000 0.000000 8.115218 6.854062 -4.611581 -3.893998 28.384577 6.949298 6.058527 35.625946 -22.329902 0.000000 0.000000 0.000000 8.115218 6.854062 -4.611581 0.983013 -15.541324 -11.895336 0.000000 0.000000 0.000000 2.965897 -0.975600 -32.060905 39.955579 -32.910587 -2.104606 0.000000 0.000000 0.000000 8.115218 6.854062 -4.611581 3.299772 -18.344997 12.110442 0.000000 0.000000 0.000000 12.768933 -13.198102 60.241381 30.218246 39.297606 -4.016840 0.000000 0.000000 0.000000 
0.941191 56.644562 -3.622337 0.000000 0.000000 0.000000 -179.627049 -4.073783 170.606104 -89.141434 -22.694173 13.797271 112.920731 4.747113 3.032843 -18.075800 4.080489 -17.504641 -1.261688 1.136730 1.459765 0.000000 0.000000 0.000000 -179.627049 -4.073783 170.606104 -62.634774 17.420812 -26.753166 103.043369 3.055344 -0.377117 -19.222259 -8.324747 31.810465 -9.246661 -3.090851 -0.187945 0.000000 0.000000 0.000000 -179.627049 -4.073783 170.606104 3.942216 4.241771 -1.903981 8.075130 6.853913 -4.612895 0.000000 0.000000 0.000000 0.000000 0.000000 0.000000 8.075140 6.853910 -4.612893 -3.925082 28.376649 6.958243 6.143550 35.639586 -22.329756 0.000000 0.000000 0.000000 8.075140 6.853910 -4.612893 0.985471 -15.558944 -11.899341 0.000000 0.000000 0.000000 3.003088 -0.913851 -31.997059 40.016548 -32.998228 -2.121993 0.000000 0.000000 0.000000 8.075140 6.853910 -4.612893 3.306596 -18.371394 12.069621 0.000000 0.000000 0.000000 12.769778 -13.150465 60.289212 30.289905 39.220285 -4.043889 0.000000 0.000000 0.000000 
0.938816 56.636810 -3.633171 0.000000 0.000000 0.000000 -179.665134 -4.079792 170.599930 -89.195768 -22.687874 13.802521 112.931891 4.734297 3.032789 -18.079820 4.074636 -17.486415 -1.259185 1.135909 1.456757 0.000000 0.000000 0.000000 -179.665134 -4.079792 170.599930 -62.666187 17.403525 -26.790843 103.050418 3.055692 -0.375561 -19.241027 -8.315743 31.779255 -9.245752 -3.068063 -0.182266 0.000000 0.000000 0.000000 -179.665134 -4.079792 170.599930 3.929389 4.241927 -1.913397 8.049900 6.852351 -4.630619 0.000000 0.000000 0.000000 0.000000 0.000000 0.000000 8.049904 6.852360 -4.630622 -3.956256 28.371824 6.989452 6.229248 35.651354 -22.352714 0.000000 0.000000 0.000000 8.049904 6.852360 -4.630622 0.994519 -15.576598 -11.870958 0.000000 0.000000 0.000000 3.023610 -0.847050 -31.927221 40.033026 -33.111654 -2.139827 0.000000 0.000000 0.000000 8.049904 6.852360 -4.630622 3.329661 -18.400647 12.086232 0.000000 0.000000 0.000000 12.758462 -13.093554 60.290005 30.367813 39.179591 -4.060845 0.000000 0.000000 0.000000 
0.937225 56.633102 -3.644753 0.000000 0.000000 0.000000 -179.681363 -4.101477 170.586802 -89.228335 -22.684901 13.811244 112.940463 4.710843 3.032181 -18.086081 4.065470 -17.458607 -1.256372 1.135348 1.453658 0.000000 0.000000 0.000000 -179.681363 -4.101477 170.586802 -62.660852 17.367431 -26.835545 103.056415 3.058183 -0.375671 -19.254696 -8.306300 31.754956 -9.244783 -3.053136 -0.177828 0.000000 0.000000 0.000000 -179.681363 -4.101477 170.586802 3.921908 4.243764 -1.913909 8.034906 6.853199 -4.630682 0.000000 0.000000 0.000000 0.000000 0.000000 0.000000 8.034919 6.853198 -4.630681 -3.886907 28.379023 6.942611 6.249120 35.650019 -22.372110 0.000000 0.000000 0.000000 8.034919 6.853198 -4.630681 0.976899 -15.609393 -11.916638 0.000000 0.000000 0.000000 3.043017 -0.742986 -31.824488 40.043357 -33.239140 -2.145939 0.000000 0.000000 0.000000 8.034919 6.853198 -4.630681 3.336392 -18.459136 12.041841 0.000000 0.000000 0.000000 12.740245 -13.038983 60.364857 30.366188 39.076622 -4.084394 0.000000 0.000000 0.000000 
0.936666 56.620468 -3.657803 0.000000 0.000000 0.000000 -179.692182 -4.146292 170.557651 -89.279247 -22.712659 13.787085 112.960216 4.681967 3.031434 -18.083452 4.058110 -17.438100 -1.253466 1.135030 1.450149 0.000000 0.000000 0.000000 -179.692182 -4.146292 170.557651 -62.630519 17.321384 -26.877901 103.063477 3.057784 -0.375618 -19.274922 -8.308064 31.765359 -9.244290 -3.046309 -0.174958 0.000000 0.000000 0.000000 -179.692182 -4.146292 170.557651 3.919177 4.249985 -1.907301 8.029085 6.859956 -4.615831 0.000000 0.000000 0.000000 0.000000 0.000000 0.000000 8.029090 6.859959 -4.615836 -3.742318 28.382725 6.854992 6.260075 35.661948 -22.423528 0.000000 0.000000 0.000000 8.029090 6.859959 -4.615836 0.962541 -15.618045 -11.957338 0.000000 0.000000 0.000000 3.035528 -0.677055 -31.765157 40.052933 -33.351284 -2.115371 0.000000 0.000000 0.000000 8.029090 6.859959 -4.615836 3.329146 -18.526895 11.947672 0.000000 0.000000 0.000000 12.742415 -12.986554 60.484324 30.355666 38.949379 -4.106670 0.000000 0.000000 0.000000 
0.941389 56.593124 -3.668526 0.000000 0.000000 0.000000 -179.703206 -4.199525 170.510072 -89.367568 -22.766301 13.767589 112.995112 4.634373 3.030836 -18.063870 4.042932 -17.408038 -1.250106 1.135014 1.446273 0.000000 0.000000 0.000000 -179.703206 -4.199525 170.510072 -62.591273 17.291963 -26.873851 103.090285 3.021122 -0.375117 -19.308332 -8.323153 31.799571 -9.244246 -3.055556 -0.175144 0.000000 0.000000 0.000000 -179.703206 -4.199525 170.510072 3.922176 4.261976 -1.895990 8.034568 6.876345 -4.590090 0.000000 0.000000 0.000000 0.000000 0.000000 0.000000 8.034561 6.876345 -4.590093 -3.549688 28.398086 6.774691 6.324199 35.695204 -22.554336 0.000000 0.000000 0.000000 8.034561 6.876345 -4.590093 0.945733 -15.704645 -11.995533 0.000000 0.000000 0.000000 3.049255 -0.545984 -31.688902 39.991311 -33.558888 -2.101910 0.000000 0.000000 0.000000 8.034561 6.876345 -4.590093 3.333998 -18.557598 11.825797 0.000000 0.000000 0.000000 12.764153 -12.943045 60.638843 30.343689 38.807403 -4.142926 0.000000 0.000000 0.000000 
0.957542 56.548241 -3.671036 0.000000 0.000000 0.000000 -179.709749 -4.248822 170.481836 -89.475260 -22.822112 13.743727 113.038217 4.580080 3.028950 -18.023117 4.030586 -17.388676 -1.245991 1.135288 1.441380 0.000000 0.000000 0.000000 -179.709749 -4.248822 170.481836 -62.567497 17.318056 -26.841318 103.145549 2.969784 -0.374707 -19.341953 -8.343687 31.859236 -9.244134 -3.075872 -0.177515 0.000000 0.000000 0.000000 -179.709749 -4.248822 170.481836 3.935047 4.274288 -1.898084 8.060384 6.892131 -4.589447 0.000000 0.000000 0.000000 0.000000 0.000000 0.000000 8.060384 6.892136 -4.589453 -3.468743 28.406453 6.794863 6.503377 35.763728 -22.734631 0.000000 0.000000 0.000000 8.060384 6.892136 -4.589453 0.971800 -15.758172 -11.931232 0.000000 0.000000 0.000000 3.042296 -0.456604 -31.658118 39.898738 -33.818333 -2.049889 0.000000 0.000000 0.000000 8.060384 6.892136 -4.589453 3.346267 -18.602842 11.769257 0.000000 0.000000 0.000000 12.768415 -12.892626 60.750967 30.340339 38.709578 -4.175031 0.000000 0.000000 0.000000 
